# xmcd
#
# Track frame offsets:
#	150
#	15722
#	31207
#	49775
#	73440
#	90225
#	104947
#	122788
#	139979
#	162510
#	169571
#	181512
#
# Disc length: 2559 seconds
#
# Revision: 2
# Processed by: cddbd v1.5.2PL0 Copyright (c) Steve Scherf et al.
# Submitted via: audiograbber 1.83.01
#
DISCID=a309fd0c
DTITLE=Boxmasters, The - The Boxmasters CD1
DYEAR=2008
DGENRE=Country
TTITLE0=The poor house
TTITLE1=Build your own prison
TTITLE2=I'll give you a ring
TTITLE3=The last place they would look
TTITLE4=Shit list
TTITLE5=I'm watchin' the game
TTITLE6=20 years ago
TTITLE7=That mountain
TTITLE8=The work of art
TTITLE9=2-bit grifter
TTITLE10=The girl on the side
TTITLE11=No whiskey in heaven
EXTD=
EXTT0=
EXTT1=
EXTT2=
EXTT3=
EXTT4=
EXTT5=
EXTT6=
EXTT7=
EXTT8=
EXTT9=
EXTT10=
EXTT11=
PLAYORDER=
